<?xml version="1.0" standalone="no"?>
<!DOCTYPE svg PUBLIC "-//W3C//DTD SVG 20010904//EN"
 "http://www.w3.org/TR/2001/REC-SVG-20010904/DTD/svg10.dtd">
<svg version="1.0" xmlns="http://www.w3.org/2000/svg"
 width="609.000000pt" height="609.000000pt" viewBox="0 0 609.000000 609.000000"
 preserveAspectRatio="xMidYMid meet">
<metadata>
Created by potrace 1.14, written by Peter Selinger 2001-2017
</metadata>
<g transform="translate(0.000000,609.000000) scale(0.100000,-0.100000)"
fill="#000000" stroke="none">
<path d="M2700 4775 c-29 -16 -56 -39 -205 -180 -183 -171 -165 -160 -242
-157 -38 2 -81 5 -98 9 -16 3 -73 6 -125 7 -88 1 -100 -1 -161 -31 -63 -31
-126 -83 -179 -149 -31 -37 -38 -50 -91 -144 -23 -41 -50 -84 -60 -95 -10 -11
-25 -47 -33 -80 -13 -50 -60 -181 -96 -270 -5 -11 -23 -57 -41 -103 -17 -45
-47 -101 -65 -124 -18 -23 -32 -44 -32 -47 0 -4 -1 -8 -2 -11 -5 -15 -10 -53
-16 -120 -3 -41 -7 -76 -9 -78 -1 -2 -19 36 -38 83 -76 180 -169 271 -331 324
-128 42 -306 60 -363 36 -40 -17 -46 -41 -30 -124 l12 -64 190 -113 c238 -142
243 -145 241 -160 -2 -13 -116 -110 -116 -98 0 4 -8 1 -17 -7 -55 -44 -84 -42
-107 6 -9 19 -25 37 -36 40 -11 3 -26 12 -32 18 -7 7 -33 23 -58 36 -25 14
-100 57 -167 97 -121 72 -122 72 -142 53 -25 -24 -26 -58 -6 -154 24 -118 62
-207 116 -276 l29 -36 -21 -19 c-19 -17 -20 -26 -15 -82 4 -35 11 -72 16 -82
5 -9 41 -34 79 -54 75 -39 80 -40 196 -10 209 53 334 68 430 51 53 -9 258
-123 252 -140 -1 -5 -30 -20 -62 -33 -84 -34 -120 -53 -195 -102 -100 -67
-116 -100 -58 -122 18 -7 55 -21 83 -32 59 -24 121 -30 207 -18 144 20 210 22
218 9 5 -7 0 -34 -11 -61 -21 -53 -84 -157 -96 -160 -5 0 -19 -2 -33 -4 -14
-1 -43 -4 -65 -7 -22 -3 -67 -8 -100 -11 -33 -4 -76 -9 -95 -12 -34 -5 -135
-15 -175 -18 -28 -2 -45 -15 -45 -33 0 -42 188 -177 313 -225 75 -29 161 -33
233 -12 32 9 115 44 184 76 230 109 309 129 539 131 100 2 135 -1 138 -11 3
-6 8 -12 13 -12 4 0 111 -69 237 -153 126 -83 271 -179 323 -213 52 -33 121
-78 153 -98 124 -80 218 -111 332 -108 193 6 312 86 332 225 19 138 -8 206
-104 267 -55 34 -173 98 -223 120 -16 7 -20 14 -13 18 14 9 193 15 428 16 199
1 213 -3 460 -149 158 -93 245 -116 435 -118 298 -4 518 50 812 197 98 49 103
52 101 81 -1 19 -13 39 -30 54 -15 13 -44 38 -63 55 -19 17 -51 42 -70 56 -19
13 -37 27 -40 31 -15 19 -90 26 -180 16 -14 -2 -37 0 -52 4 -14 4 -29 5 -31 2
-6 -5 -306 -10 -312 -5 -2 2 6 20 17 40 12 21 33 58 47 84 25 45 122 158 200
235 32 31 39 33 105 34 39 1 87 2 106 4 19 1 89 6 155 9 66 4 138 9 160 11 22
2 85 7 140 10 54 4 103 9 107 11 15 9 8 39 -15 66 -12 15 -40 53 -62 84 -22
31 -48 66 -57 77 -10 11 -18 23 -18 27 0 10 -129 68 -168 76 -18 4 -32 11 -32
17 0 6 -3 8 -6 4 -3 -3 -17 -2 -31 4 -13 5 -36 11 -51 14 -15 3 -38 7 -52 10
-99 22 -343 24 -356 3 -3 -5 -9 -6 -12 -4 -4 2 -43 -4 -87 -15 -100 -24 -83
-19 -174 -55 -45 -18 -60 -18 -68 4 -14 40 -45 61 -100 68 l-55 7 5 86 c11
167 42 272 85 285 35 12 122 104 143 152 52 122 67 236 39 290 -12 22 -86 61
-130 68 -14 3 -25 5 -25 6 0 6 -267 5 -295 -1 -19 -4 -57 -11 -85 -14 -41 -6
-249 -46 -305 -60 -8 -2 -35 -8 -60 -14 -25 -6 -65 -17 -90 -24 -93 -27 -97
-13 -36 117 39 85 140 263 156 276 3 3 21 25 39 50 53 69 56 71 101 49 21 -10
45 -19 52 -19 7 0 22 -7 32 -15 34 -26 35 -5 3 56 -42 79 -113 142 -212 186
-79 34 -357 130 -465 159 -153 42 -288 76 -312 79 -15 2 -31 6 -36 9 -5 3 -22
8 -38 11 -28 5 -54 10 -99 19 -11 2 -39 9 -63 16 -99 26 -181 32 -212 15z
m191 -2077 c2 -76 17 -175 31 -211 6 -15 8 -30 5 -33 -5 -5 -32 -9 -127 -18
-30 -3 -66 -8 -79 -10 -13 -3 -56 -8 -95 -12 -39 -3 -93 -10 -119 -14 -98 -15
-154 2 -141 43 8 24 10 39 20 100 8 54 10 56 61 62 21 3 49 7 63 10 14 2 51 7
83 11 50 5 231 75 254 98 3 3 15 6 25 6 13 0 18 -8 19 -32z m679 7 c30 -7 105
-26 165 -41 61 -15 113 -30 116 -33 4 -3 9 -20 12 -38 7 -36 -1 -41 -73 -49
-61 -7 -105 -12 -105 -14 0 0 -18 -3 -40 -5 -45 -4 -153 -14 -205 -20 -42 -5
-177 -17 -205 -19 -22 -1 -22 0 -10 99 11 83 12 98 14 118 1 15 15 17 139 17
82 -1 159 -6 192 -15z"/>
</g>
</svg>
